<?xml version="1.0" encoding="utf-8" standalone="no"?>
<!DOCTYPE svg PUBLIC "-//W3C//DTD SVG 1.1//EN"
  "http://www.w3.org/Graphics/SVG/1.1/DTD/svg11.dtd">
    
<svg width='800px' height='600px' style=''
    xmlns="http://www.w3.org/2000/svg" version="1.2" baseProfile="tiny"
    xmlns:xlink="http://www.w3.org/1999/xlink"
    xmlns:dc="http://purl.org/dc/elements/1.1/"
    xmlns:cc="http://creativecommons.org/ns#"
    xmlns:rdf="http://www.w3.org/1999/02/22-rdf-syntax-ns#"
    ><g transform="translate(62.4,191.8)"><g transform="translate(0.0,0.0)">
<defs>
<path d="M2.66002 -20.7422V0H10.1021C14.1669 0 17.1258 -2.68991 17.1258 -5.61893C17.1258 -7.89041 15.1831 -10.1918 11.6862 -10.8493C15.5716 -11.9851 16.3487 -14.2565 16.3487 -15.5417C16.3487 -18.2316 13.4197 -20.7422 9.32503 -20.7422H2.66002ZM5.08095 -11.6862V-19.0685H8.51806C11.5965 -19.0685 14.0174 -17.4844 14.0174 -15.5118C14.0174 -13.7186 12.1046 -11.6862 8.24907 -11.6862H5.08095ZM5.08095 -1.67372V-9.86301H9.05604C12.2839 -9.86301 14.7646 -7.86052 14.7646 -5.64882C14.7646 -3.61644 12.5828 -1.67372 9.26526 -1.67372H5.08095Z" id="4204_0"/>
<path d="M11.2379 -8.45828C11.2379 -11.2677 9.23537 -13.2105 6.54545 -13.2105C5.23039 -13.2105 3.79577 -12.9714 2.15193 -12.0149L2.33126 -10.0423C3.07846 -10.5803 4.36364 -11.4471 6.51557 -11.4471C8.03985 -11.4471 8.96638 -10.2814 8.96638 -8.42839V-7.29265C4.18431 -7.14321 1.19552 -5.76837 1.19552 -3.40722C1.19552 -2.18182 1.94271 0.239103 4.42341 0.239103C4.87173 0.239103 7.29265 0.179328 9.02615 -1.10585V0H11.2379V-8.45828ZM8.96638 -3.94521C8.96638 -3.40722 8.96638 -2.68991 8.06974 -2.15193C7.29265 -1.64384 6.30635 -1.58406 5.88792 -1.58406C4.39352 -1.58406 3.37733 -2.42092 3.37733 -3.467C3.37733 -5.55915 8.03985 -5.76837 8.96638 -5.79826V-3.94521Z" id="4204_1"/>
<path d="M11.6862 -6.54545C11.6862 -7.53176 11.6264 -9.44458 10.67 -11.0286C9.62391 -12.7323 7.9203 -13.2105 6.63512 -13.2105C3.52677 -13.2105 0.896638 -10.2814 0.896638 -6.48568C0.896638 -2.77958 3.61644 0.239103 7.05355 0.239103C8.39851 0.239103 10.0423 -0.14944 11.5367 -1.2254C11.5367 -1.34496 11.477 -2.00249 11.4471 -2.03238C11.4471 -2.09215 11.3574 -3.01868 11.3574 -3.13823C9.92279 -1.9726 8.27895 -1.58406 7.08344 -1.58406C5.17061 -1.58406 3.10834 -3.19801 3.01868 -6.54545H11.6862ZM3.25778 -8.18929C3.64633 -9.83313 4.96139 -11.3873 6.63512 -11.3873C7.08344 -11.3873 9.17559 -11.3275 9.71357 -8.18929H3.25778Z" id="4204_2"/>
<path d="M4.57285 -19.6663H2.06227V-17.1557H4.57285V-19.6663ZM4.42341 -12.8518H2.21171V0H4.42341V-12.8518Z" id="4204_3"/>
<path d="M7.9203 -7.9203L12.5529 -12.8518H9.68369L4.4533 -7.29265V-20.7422H2.24159V0H4.42341V-4.18431L6.4259 -6.30635L10.6401 0H13.1806L7.9203 -7.9203Z" id="4204_4"/>
<path d="M4.42341 -20.7422H2.21171V0H4.42341V-20.7422Z" id="4204_5"/>
<path d="M20.0249 -8.72727C20.0249 -10.7298 19.5168 -13.0909 16.1694 -13.0909C13.9278 -13.0909 12.5828 -11.6862 11.9851 -10.8194C11.4471 -12.4035 10.1918 -13.0909 8.39851 -13.0909C6.36613 -13.0909 5.08095 -11.9253 4.39352 -11.0884V-12.9415H2.21171V0H4.48319V-7.23288C4.48319 -8.99626 5.14072 -11.2677 7.26276 -11.2677C9.98257 -11.2677 9.98257 -9.35492 9.98257 -8.48817V0H12.254V-7.23288C12.254 -8.99626 12.9116 -11.2677 15.0336 -11.2677C17.7534 -11.2677 17.7534 -9.35492 17.7534 -8.48817V0H20.0249V-8.72727Z" id="4204_6"/>
<path d="M12.2242 -8.72727C12.2242 -10.6102 11.7758 -13.0909 8.39851 -13.0909C6.48568 -13.0909 5.23039 -12.1046 4.39352 -11.0884V-12.9415H2.21171V0H4.48319V-7.23288C4.48319 -9.11582 5.2005 -11.2677 7.23288 -11.2677C9.86301 -11.2677 9.95268 -9.50436 9.95268 -8.48817V0H12.2242V-8.72727Z" id="4204_7"/>
<path d="M13.2105 -6.39601C13.2105 -10.2217 10.3711 -13.2105 7.02366 -13.2105C3.58655 -13.2105 0.806974 -10.132 0.806974 -6.39601C0.806974 -2.60025 3.67621 0.239103 6.99377 0.239103C10.401 0.239103 13.2105 -2.68991 13.2105 -6.39601ZM7.02366 -1.64384C4.90162 -1.64384 3.07846 -3.37733 3.07846 -6.63512C3.07846 -10.1021 5.2005 -11.3873 6.99377 -11.3873C8.93649 -11.3873 10.939 -9.98257 10.939 -6.63512C10.939 -3.25778 8.99626 -1.64384 7.02366 -1.64384Z" id="4204_8"/>
<path d="M4.51308 -1.34496C5.49938 -0.388543 6.84433 0.239103 8.27895 0.239103C11.0585 0.239103 13.4496 -2.63014 13.4496 -6.45579C13.4496 -9.98257 11.6563 -13.0909 9.08593 -13.0909C7.59153 -13.0909 5.79826 -12.5529 4.4533 -11.477V-12.8518H2.24159V5.82814H4.51308V-1.34496ZM4.51308 -9.71357C4.75218 -10.0722 5.76837 -11.208 7.4122 -11.208C9.50436 -11.208 11.1781 -9.05604 11.1781 -6.45579C11.1781 -3.49689 9.1457 -1.58406 7.14321 -1.58406C6.54545 -1.58406 5.91781 -1.7335 5.32005 -2.24159C4.51308 -2.9589 4.51308 -3.40722 4.51308 -3.82565V-9.71357Z" id="4204_9"/>
<path d="M4.4533 -6.36613C4.4533 -9.17559 6.51557 -11.0585 9.1457 -11.1183V-13.0909C7.23288 -13.061 5.4396 -12.1046 4.36364 -10.5504V-12.9415H2.24159V0H4.4533V-6.36613Z" id="4204_10"/>
<path d="M9.62391 -12.3138C7.86052 -13.1507 6.48568 -13.2105 5.58904 -13.2105C3.467 -13.2105 0.926526 -12.4633 0.926526 -9.44458S4.2142 -5.76837 5.11083 -5.58904C6.48568 -5.32005 8.00996 -5.02117 8.00996 -3.52677C8.00996 -1.64384 5.85803 -1.64384 5.46949 -1.64384C4.27397 -1.64384 2.63014 -1.9726 1.13574 -3.04857L0.777086 -1.04608C2.4807 -0.0597758 4.12453 0.239103 5.49938 0.239103C9.17559 0.239103 10.1021 -2.00249 10.1021 -3.7061C10.1021 -5.17061 9.26526 -6.15691 8.69738 -6.60523C7.71108 -7.38232 7.35243 -7.47198 4.90162 -7.98007C4.48319 -8.03985 3.01868 -8.36862 3.01868 -9.71357C3.01868 -11.4172 4.90162 -11.4172 5.32005 -11.4172C7.26276 -11.4172 8.45828 -10.8194 9.26526 -10.3711L9.62391 -12.3138Z" id="4204_11"/>
<path d="M4.99128 -11.1183H8.87671V-12.8518H4.99128V-16.528H2.86924V-12.8518H0.508095V-11.1183H2.80946V-3.55666C2.80946 -1.85305 3.19801 0.239103 5.17061 0.239103C6.66501 0.239103 8.03985 -0.179328 9.35492 -0.86675L8.87671 -2.63014C8.1594 -2.00249 7.29265 -1.64384 6.36613 -1.64384C5.05106 -1.64384 4.99128 -3.31756 4.99128 -4.06476V-11.1183Z" id="4204_12"/>
<path d="M12.4932 -12.8518H10.1619C7.62142 -6.00747 6.75467 -3.2279 6.69489 -1.7335H6.66501C6.57534 -3.19801 5.26027 -6.78456 4.2142 -9.35492L2.80946 -12.8518H0.388543L5.6787 0C5.34994 0.896638 4.87173 2.24159 4.72229 2.54047C4.06476 4.2142 3.61644 4.2142 3.13823 4.2142C3.01868 4.2142 2.06227 4.18431 0.986301 3.85554L1.16563 5.82814C1.91283 5.97758 2.66002 6.06725 3.19801 6.06725C3.94521 6.06725 5.4396 6.06725 6.81445 2.39103L12.4932 -12.8518Z" id="4204_13"/>
</defs>
<g id="page1" transform="scale(1.328) translate(72.0,71.9)">
<g fill="#228b22">
<use x="-72" xlink:href="#4204_0" y="-51.2445"/>
<use x="-53.3685" xlink:href="#4204_2" y="-51.2445"/>
<use x="-40.9235" xlink:href="#4204_1" y="-51.2445"/>
<use x="-27.4973" xlink:href="#4204_6" y="-51.2445"/>
<use x="-5.31167" xlink:href="#4204_9" y="-51.2445"/>
<use x="8.31504" xlink:href="#4204_13" y="-51.2445"/>
<use x="30.5356" xlink:href="#4204_1" y="-51.2445"/>
<use x="53.3306" xlink:href="#4204_12" y="-51.2445"/>
<use x="63.4421" xlink:href="#4204_8" y="-51.2445"/>
<use x="78.2234" xlink:href="#4204_8" y="-51.2445"/>
<use x="92.224" xlink:href="#4204_5" y="-51.2445"/>
<use x="108.222" xlink:href="#4204_12" y="-51.2445"/>
<use x="118.334" xlink:href="#4204_8" y="-51.2445"/>
<use x="141.703" xlink:href="#4204_6" y="-51.2445"/>
<use x="163.889" xlink:href="#4204_1" y="-51.2445"/>
<use x="177.315" xlink:href="#4204_4" y="-51.2445"/>
<use x="190.164" xlink:href="#4204_2" y="-51.2445"/>
<use x="211.977" xlink:href="#4204_11" y="-51.2445"/>
<use x="222.711" xlink:href="#4204_3" y="-51.2445"/>
<use x="229.341" xlink:href="#4204_6" y="-51.2445"/>
<use x="251.526" xlink:href="#4204_9" y="-51.2445"/>
<use x="265.934" xlink:href="#4204_5" y="-51.2445"/>
<use x="272.563" xlink:href="#4204_2" y="-51.2445"/>
<use x="294.377" xlink:href="#4204_9" y="-51.2445"/>
<use x="308.003" xlink:href="#4204_10" y="-51.2445"/>
<use x="317.541" xlink:href="#4204_2" y="-51.2445"/>
<use x="329.985" xlink:href="#4204_11" y="-51.2445"/>
<use x="340.719" xlink:href="#4204_2" y="-51.2445"/>
<use x="353.164" xlink:href="#4204_7" y="-51.2445"/>
<use x="367.572" xlink:href="#4204_12" y="-51.2445"/>
<use x="377.683" xlink:href="#4204_1" y="-51.2445"/>
<use x="391.11" xlink:href="#4204_12" y="-51.2445"/>
<use x="401.221" xlink:href="#4204_3" y="-51.2445"/>
<use x="407.85" xlink:href="#4204_8" y="-51.2445"/>
<use x="421.851" xlink:href="#4204_7" y="-51.2445"/>
</g>
</g>
</g><g transform="translate(263.6,91.9)">
<defs>
<path d="M10.8991 -2.29141C9.56413 -1.39477 8.94645 -1.13574 7.3325 -1.13574C4.54296 -1.13574 2.90909 -4.14446 2.90909 -6.89415C2.90909 -9.82316 4.58281 -12.7123 7.4122 -12.7123C8.68742 -12.7123 9.52428 -12.3537 10.5405 -11.7161L10.8194 -13.2902C9.86301 -13.7684 8.64757 -13.9875 7.43213 -13.9875C3.60648 -13.9875 1.23537 -10.4608 1.23537 -6.89415C1.23537 -2.96887 4.04483 0.139477 7.23288 0.139477C8.94645 0.139477 9.54421 0 11.0187 -0.936488L10.8991 -2.29141Z" id="5941_14"/>
<path d="M11.4371 -13.8281H9.76339V-7.79078H3.42715V-13.8281H1.75342V0H3.42715V-6.57534H9.76339V0H11.4371V-13.8281Z" id="5941_15"/>
<path d="M7.49191 -5.63885C7.49191 -7.51183 6.15691 -8.80697 4.36364 -8.80697C3.48692 -8.80697 2.53051 -8.64757 1.43462 -8.00996L1.55417 -6.69489C2.0523 -7.05355 2.90909 -7.63138 4.34371 -7.63138C5.3599 -7.63138 5.97758 -6.8543 5.97758 -5.61893V-4.86177C2.78954 -4.76214 0.797011 -3.84558 0.797011 -2.27148C0.797011 -1.45455 1.29514 0.159402 2.94894 0.159402C3.24782 0.159402 4.86177 0.119552 6.01743 -0.737235V0H7.49191V-5.63885ZM5.97758 -2.63014C5.97758 -2.27148 5.97758 -1.79328 5.37983 -1.43462C4.86177 -1.09589 4.20423 -1.05604 3.92528 -1.05604C2.92902 -1.05604 2.25156 -1.61395 2.25156 -2.31133C2.25156 -3.7061 5.3599 -3.84558 5.97758 -3.8655V-2.63014Z" id="5941_16"/>
<path d="M7.79078 -4.36364C7.79078 -5.02117 7.75093 -6.29639 7.11333 -7.35243C6.41594 -8.48817 5.2802 -8.80697 4.42341 -8.80697C2.35118 -8.80697 0.597758 -6.8543 0.597758 -4.32379C0.597758 -1.85305 2.41096 0.159402 4.70237 0.159402C5.599 0.159402 6.69489 -0.0996264 7.69116 -0.816936C7.69116 -0.896638 7.65131 -1.33499 7.63138 -1.35492C7.63138 -1.39477 7.57161 -2.01245 7.57161 -2.09215C6.61519 -1.31507 5.5193 -1.05604 4.72229 -1.05604C3.44707 -1.05604 2.07223 -2.132 2.01245 -4.36364H7.79078ZM2.17186 -5.45953C2.43088 -6.55542 3.3076 -7.59153 4.42341 -7.59153C4.72229 -7.59153 6.11706 -7.55168 6.47572 -5.45953H2.17186Z" id="5941_17"/>
<path d="M8.86675 -8.72727C7.73101 -8.70735 6.75467 -8.48817 5.95766 -8.10959C5.30012 -8.62765 4.62267 -8.72727 4.16438 -8.72727C2.43088 -8.72727 1.11582 -7.29265 1.11582 -5.61893C1.11582 -4.54296 1.71357 -3.72603 1.75342 -3.68618C1.39477 -3.18804 1.19552 -2.65006 1.19552 -2.0523C1.19552 -1.35492 1.47447 -0.856787 1.69365 -0.577833C0.657534 0.0597758 0.518057 1.03611 0.518057 1.41469C0.518057 2.86924 2.33126 4.06476 4.66252 4.06476C7.0137 4.06476 8.8269 2.86924 8.8269 1.39477C8.8269 -1.35492 5.77833 -1.37484 4.94147 -1.37484H3.32752C3.02864 -1.37484 2.23163 -1.37484 2.23163 -2.39103C2.23163 -2.78954 2.41096 -3.04857 2.43088 -3.06849C2.72976 -2.84932 3.34745 -2.51059 4.16438 -2.51059C5.81818 -2.51059 7.19303 -3.90535 7.19303 -5.61893C7.19303 -6.57534 6.75467 -7.27273 6.57534 -7.51183H6.63512C6.69489 -7.51183 7.53176 -7.57161 7.83064 -7.57161C8.46824 -7.57161 8.52802 -7.55168 9.08593 -7.49191L8.86675 -8.72727ZM4.16438 -3.60648C3.48692 -3.60648 2.53051 -4.02491 2.53051 -5.61893C2.53051 -7.35243 3.6264 -7.63138 4.14446 -7.63138C4.82192 -7.63138 5.77833 -7.21295 5.77833 -5.61893C5.77833 -3.88543 4.68244 -3.60648 4.16438 -3.60648ZM4.92154 0.0797011C5.39975 0.0797011 7.4122 0.0797011 7.4122 1.43462C7.4122 2.29141 6.17684 2.96887 4.68244 2.96887C3.16812 2.96887 1.93275 2.31133 1.93275 1.41469C1.93275 1.31507 1.93275 0.0797011 3.3076 0.0797011H4.92154Z" id="5941_18"/>
<path d="M8.14944 -5.81818C8.14944 -7.07347 7.85056 -8.72727 5.599 -8.72727C4.34371 -8.72727 3.52677 -8.10959 2.94894 -7.43213V-13.8281H1.47447V0H2.98879V-4.82192C2.98879 -6.07721 3.467 -7.51183 4.82192 -7.51183C6.57534 -7.51183 6.63512 -6.33624 6.63512 -5.65878V0H8.14944V-5.81818Z" id="5941_19"/>
<path d="M8.80697 -4.26401C8.80697 -6.81445 6.91407 -8.80697 4.68244 -8.80697C2.39103 -8.80697 0.537983 -6.75467 0.537983 -4.26401C0.537983 -1.7335 2.45081 0.159402 4.66252 0.159402C6.934 0.159402 8.80697 -1.79328 8.80697 -4.26401ZM4.68244 -1.09589C3.26775 -1.09589 2.0523 -2.25156 2.0523 -4.42341C2.0523 -6.73474 3.467 -7.59153 4.66252 -7.59153C5.95766 -7.59153 7.29265 -6.65504 7.29265 -4.42341C7.29265 -2.17186 5.99751 -1.09589 4.68244 -1.09589Z" id="5941_20"/>
<path d="M3.32752 -7.4122H5.91781V-8.56787H3.32752V-11.0187H1.91283V-8.56787H0.33873V-7.4122H1.87298V-2.37111C1.87298 -1.23537 2.132 0.159402 3.44707 0.159402C4.44334 0.159402 5.3599 -0.119552 6.23661 -0.577833L5.91781 -1.75342C5.4396 -1.33499 4.86177 -1.09589 4.24408 -1.09589C3.36737 -1.09589 3.32752 -2.21171 3.32752 -2.70984V-7.4122Z" id="5941_21"/>
<path d="M8.14944 -8.56787H6.63512V-3.06849C6.63512 -1.59402 5.55915 -0.996264 4.42341 -0.996264C3.10834 -0.996264 2.98879 -1.43462 2.98879 -2.25156V-8.56787H1.47447V-2.15193C1.47447 -0.597758 2.01245 0.159402 3.3873 0.159402C4.06476 0.159402 5.599 0 6.67497 -0.996264V0H8.14944V-8.56787Z" id="5941_22"/>
<path d="M8.32877 -8.56787H6.7746L5.4396 -4.84184C5.02117 -3.6264 4.42341 -1.95268 4.32379 -1.09589H4.30386C4.26401 -1.45455 4.10461 -1.9726 4.00498 -2.33126C3.88543 -2.76961 3.72603 -3.28767 3.60648 -3.64633L1.85305 -8.56787H0.259029L3.40722 0H5.18057L8.32877 -8.56787Z" id="5941_23"/>
</defs>
<g id="page1" transform="scale(1.328) translate(72.0,71.9)">
<use x="-72" xlink:href="#5941_15" y="-58.163"/>
<use x="-58.8371" xlink:href="#5941_22" y="-58.163"/>
<use x="-49.2321" xlink:href="#5941_18" y="-58.163"/>
<use x="-39.8984" xlink:href="#5941_20" y="-58.163"/>
<use x="-24.3188" xlink:href="#5941_14" y="-58.163"/>
<use x="-12.3924" xlink:href="#5941_19" y="-58.163"/>
<use x="-2.78742" xlink:href="#5941_16" y="-58.163"/>
<use x="6.1634" xlink:href="#5941_22" y="-58.163"/>
<use x="15.7684" xlink:href="#5941_23" y="-58.163"/>
<use x="24.3363" xlink:href="#5941_17" y="-58.163"/>
<use x="32.6329" xlink:href="#5941_21" y="-58.163"/>
</g>
</g><g transform="translate(246.5,153.1)">
<defs>
<path d="M6.55542 -5.75841C8.94645 -5.75841 10.8991 -7.61146 10.8991 -9.80324C10.8991 -11.9552 9.02615 -13.8281 6.43587 -13.8281H1.77335V0H3.44707V-5.75841H6.55542ZM5.99751 -12.7123C8.30884 -12.7123 9.32503 -11.2578 9.32503 -9.80324C9.32503 -8.44832 8.38854 -6.91407 5.99751 -6.91407H3.40722V-12.7123H5.99751Z" id="7662_24"/>
<path d="M7.79078 -4.36364C7.79078 -5.02117 7.75093 -6.29639 7.11333 -7.35243C6.41594 -8.48817 5.2802 -8.80697 4.42341 -8.80697C2.35118 -8.80697 0.597758 -6.8543 0.597758 -4.32379C0.597758 -1.85305 2.41096 0.159402 4.70237 0.159402C5.599 0.159402 6.69489 -0.0996264 7.69116 -0.816936C7.69116 -0.896638 7.65131 -1.33499 7.63138 -1.35492C7.63138 -1.39477 7.57161 -2.01245 7.57161 -2.09215C6.61519 -1.31507 5.5193 -1.05604 4.72229 -1.05604C3.44707 -1.05604 2.07223 -2.132 2.01245 -4.36364H7.79078ZM2.17186 -5.45953C2.43088 -6.55542 3.3076 -7.59153 4.42341 -7.59153C4.72229 -7.59153 6.11706 -7.55168 6.47572 -5.45953H2.17186Z" id="7662_25"/>
<path d="M8.14944 -5.81818C8.14944 -7.07347 7.85056 -8.72727 5.599 -8.72727C4.34371 -8.72727 3.52677 -8.10959 2.94894 -7.43213V-13.8281H1.47447V0H2.98879V-4.82192C2.98879 -6.07721 3.467 -7.51183 4.82192 -7.51183C6.57534 -7.51183 6.63512 -6.33624 6.63512 -5.65878V0H8.14944V-5.81818Z" id="7662_26"/>
<path d="M3.04857 -13.1108H1.37484V-11.4371H3.04857V-13.1108ZM2.94894 -8.56787H1.47447V0H2.94894V-8.56787Z" id="7662_27"/>
<path d="M8.14944 -5.81818C8.14944 -7.07347 7.85056 -8.72727 5.599 -8.72727C4.32379 -8.72727 3.48692 -8.06974 2.92902 -7.39228V-8.62765H1.47447V0H2.98879V-4.82192C2.98879 -6.07721 3.467 -7.51183 4.82192 -7.51183C6.57534 -7.51183 6.63512 -6.33624 6.63512 -5.65878V0H8.14944V-5.81818Z" id="7662_28"/>
<path d="M8.80697 -4.26401C8.80697 -6.81445 6.91407 -8.80697 4.68244 -8.80697C2.39103 -8.80697 0.537983 -6.75467 0.537983 -4.26401C0.537983 -1.7335 2.45081 0.159402 4.66252 0.159402C6.934 0.159402 8.80697 -1.79328 8.80697 -4.26401ZM4.68244 -1.09589C3.26775 -1.09589 2.0523 -2.25156 2.0523 -4.42341C2.0523 -6.73474 3.467 -7.59153 4.66252 -7.59153C5.95766 -7.59153 7.29265 -6.65504 7.29265 -4.42341C7.29265 -2.17186 5.99751 -1.09589 4.68244 -1.09589Z" id="7662_29"/>
<path d="M2.96887 -4.24408C2.96887 -6.11706 4.34371 -7.37235 6.09714 -7.4122V-8.72727C4.82192 -8.70735 3.6264 -8.06974 2.90909 -7.03362V-8.62765H1.4944V0H2.96887V-4.24408Z" id="7662_30"/>
<path d="M3.32752 -7.4122H5.91781V-8.56787H3.32752V-11.0187H1.91283V-8.56787H0.33873V-7.4122H1.87298V-2.37111C1.87298 -1.23537 2.132 0.159402 3.44707 0.159402C4.44334 0.159402 5.3599 -0.119552 6.23661 -0.577833L5.91781 -1.75342C5.4396 -1.33499 4.86177 -1.09589 4.24408 -1.09589C3.36737 -1.09589 3.32752 -2.21171 3.32752 -2.70984V-7.4122Z" id="7662_31"/>
<path d="M12.4932 -8.56787H10.9788L9.92279 -4.98132C9.70361 -4.22416 9.08593 -2.132 9.00623 -1.15567H8.9863C8.94645 -1.75342 8.60772 -3.18804 8.04981 -5.08095L7.03362 -8.56787H5.65878L4.66252 -5.16065C4.16438 -3.42715 3.7858 -1.95268 3.74595 -1.15567H3.72603C3.64633 -2.33126 2.82939 -5.08095 2.70984 -5.5193L1.8132 -8.56787H0.259029L2.84932 0H4.36364C5.39975 -3.42715 6.19676 -6.07721 6.25654 -7.4122C6.29639 -6.75467 6.63512 -5.33998 6.83437 -4.64259L8.14944 0H9.90286L12.4932 -8.56787Z" id="7662_32"/>
<path d="M8.32877 -8.56787H6.7746C5.08095 -4.00498 4.50311 -2.15193 4.46326 -1.15567H4.44334C4.38356 -2.132 3.50685 -4.52304 2.80946 -6.23661L1.87298 -8.56787H0.259029L3.7858 0C3.56663 0.597758 3.24782 1.4944 3.14819 1.69365C2.70984 2.80946 2.41096 2.80946 2.09215 2.80946C2.01245 2.80946 1.37484 2.78954 0.657534 2.57036L0.777086 3.88543C1.27522 3.98506 1.77335 4.04483 2.132 4.04483C2.63014 4.04483 3.6264 4.04483 4.54296 1.59402L8.32877 -8.56787Z" id="7662_33"/>
</defs>
<g id="page1" transform="scale(1.328) translate(72.0,71.9)">
<g fill="#888888">
<use x="-72" xlink:href="#7662_32" y="-58.163"/>
<use x="-59.2838" xlink:href="#7662_30" y="-58.163"/>
<use x="-52.9257" xlink:href="#7662_27" y="-58.163"/>
<use x="-48.5061" xlink:href="#7662_31" y="-58.163"/>
<use x="-41.7651" xlink:href="#7662_31" y="-58.163"/>
<use x="-35.024" xlink:href="#7662_25" y="-58.163"/>
<use x="-26.7274" xlink:href="#7662_28" y="-58.163"/>
<use x="-10.8766" xlink:href="#7662_27" y="-58.163"/>
<use x="-6.45701" xlink:href="#7662_28" y="-58.163"/>
<use x="9.39378" xlink:href="#7662_24" y="-58.163"/>
<use x="21.2963" xlink:href="#7662_33" y="-58.163"/>
<use x="29.8642" xlink:href="#7662_31" y="-58.163"/>
<use x="36.6052" xlink:href="#7662_26" y="-58.163"/>
<use x="46.2102" xlink:href="#7662_29" y="-58.163"/>
<use x="55.5439" xlink:href="#7662_28" y="-58.163"/>
</g>
</g>
</g><g transform="translate(289.2,196.5)">
<defs>
<path d="M6.4259 -10.67C6.50062 -10.8643 6.50062 -10.8941 6.50062 -10.924C6.50062 -11.1183 6.35118 -11.208 6.23163 -11.208C6.03736 -11.208 5.99253 -11.0735 5.91781 -10.8792L0.881694 3.19801C0.806974 3.39228 0.806974 3.42217 0.806974 3.45205C0.806974 3.61644 0.926526 3.73599 1.09091 3.73599C1.28518 3.73599 1.33001 3.58655 1.38979 3.42217L6.4259 -10.67Z" id="9409_34"/>
<path d="M6.69489 -4.87173C6.69489 -5.87298 6.65006 -7.02366 6.26152 -8.08468C5.61893 -9.75841 4.4533 -10.1021 3.66127 -10.1021C2.68991 -10.1021 1.74844 -9.60897 1.19552 -8.42839C0.702366 -7.36737 0.612702 -6.15691 0.612702 -4.87173C0.612702 -3.24284 0.747198 -2.31631 1.2254 -1.27024C1.67372 -0.283935 2.63014 0.313823 3.64633 0.313823C4.63263 0.313823 5.5741 -0.224159 6.08219 -1.25529C6.59029 -2.31631 6.69489 -3.40722 6.69489 -4.87173ZM3.66127 -0.582814C1.74844 -0.582814 1.74844 -3.64633 1.74844 -5.05106C1.74844 -6.02242 1.74844 -6.934 2.01743 -7.7858C2.37609 -8.84682 3.03362 -9.20548 3.64633 -9.20548C5.55915 -9.20548 5.55915 -6.4259 5.55915 -5.05106C5.55915 -4.09465 5.55915 -3.10834 5.29016 -2.18182C4.88667 -0.747198 4.04981 -0.582814 3.66127 -0.582814Z" id="9409_35"/>
<path d="M4.39352 -10.1021H4.10959C3.87049 -9.86301 3.15318 -9.16065 1.53923 -9.13076C1.33001 -9.13076 1.31507 -9.11582 1.31507 -8.84682V-8.24907C2.22665 -8.24907 2.91407 -8.47323 3.2279 -8.60772V-0.86675H1.40473V0H6.21669V-0.86675H4.39352V-10.1021Z" id="9409_36"/>
<path d="M0.732254 -0.941469V0H6.57534V-1.01619H3.91532C3.73599 -1.01619 3.55666 -1.00125 3.37733 -1.00125H1.77833C2.16687 -1.40473 3.55666 -2.77958 4.52802 -3.64633C5.63387 -4.61768 6.57534 -5.54421 6.57534 -6.91905C6.57534 -8.57783 5.42466 -10.1021 3.45205 -10.1021C1.83811 -10.1021 1.01619 -9.0411 0.612702 -7.65131C1.09091 -7.05355 1.09091 -7.02366 1.2254 -6.84433C1.599 -8.44334 2.15193 -9.17559 3.25778 -9.17559C4.54296 -9.17559 5.37983 -8.17435 5.37983 -6.88917C5.37983 -6.11208 5.066 -5.24533 4.06476 -4.25903L0.732254 -0.941469Z" id="9409_37"/>
<path d="M6.08219 -9.80324C5.46949 -10.0274 5.03611 -10.1021 4.51308 -10.1021C2.49564 -10.1021 0.627646 -8.02491 0.627646 -4.81196C0.627646 -0.523039 2.49564 0.313823 3.67621 0.313823C4.57285 0.313823 5.21544 -0.0448319 5.79826 -0.732254C6.47073 -1.53923 6.67995 -2.24159 6.67995 -3.31756C6.67995 -5.23039 5.69365 -6.85928 4.33375 -6.85928C3.2279 -6.85928 2.39103 -6.3213 1.83811 -5.64882C2.00249 -7.86052 3.06351 -9.25031 4.54296 -9.25031C5.18555 -9.25031 5.64882 -9.10087 6.08219 -8.93649V-9.80324ZM1.85305 -3.25778C1.85305 -3.37733 1.85305 -3.57161 1.868 -3.67621C1.868 -4.72229 2.46575 -5.96264 3.75093 -5.96264C4.24408 -5.96264 4.72229 -5.82814 5.15567 -5.08095C5.48443 -4.48319 5.49938 -3.88543 5.49938 -3.30262C5.49938 -2.68991 5.49938 -2.04732 5.05106 -1.37484C4.78207 -0.971357 4.40847 -0.582814 3.67621 -0.582814C2.12204 -0.582814 1.89788 -2.77958 1.85305 -3.25778Z" id="9409_38"/>
<path d="M4.66252 -5.29016C5.60399 -5.5741 6.50062 -6.39601 6.50062 -7.50187C6.50062 -8.9066 5.24533 -10.1021 3.66127 -10.1021C2.01743 -10.1021 0.806974 -8.86177 0.806974 -7.50187C0.806974 -6.38107 1.71856 -5.55915 2.64508 -5.29016C1.43462 -4.88667 0.612702 -3.88543 0.612702 -2.68991C0.612702 -1.09091 1.94271 0.313823 3.64633 0.313823C5.40971 0.313823 6.69489 -1.1208 6.69489 -2.68991C6.69489 -3.88543 5.87298 -4.88667 4.66252 -5.29016ZM3.66127 -5.73848C2.4807 -5.73848 1.83811 -6.53051 1.83811 -7.48692C1.83811 -8.62267 2.64508 -9.25031 3.64633 -9.25031C4.72229 -9.25031 5.46949 -8.57783 5.46949 -7.48692C5.46949 -6.48568 4.78207 -5.73848 3.66127 -5.73848ZM3.66127 -0.582814C2.66002 -0.582814 1.79328 -1.30012 1.79328 -2.70486C1.79328 -4.30386 2.86924 -4.84184 3.64633 -4.84184C4.48319 -4.84184 5.51432 -4.25903 5.51432 -2.70486C5.51432 -1.25529 4.60274 -0.582814 3.66127 -0.582814Z" id="9409_39"/>
</defs>
<g id="page1" transform="scale(1.328) translate(72.0,72.0)">
<g fill="#888888">
<use x="-72" xlink:href="#9409_36" y="-60.792"/>
<use x="-64.7111" xlink:href="#9409_39" y="-60.792"/>
<use x="-57.4222" xlink:href="#9409_34" y="-60.792"/>
<use x="-50.1333" xlink:href="#9409_35" y="-60.792"/>
<use x="-42.8444" xlink:href="#9409_36" y="-60.792"/>
<use x="-35.5555" xlink:href="#9409_34" y="-60.792"/>
<use x="-28.2666" xlink:href="#9409_37" y="-60.792"/>
<use x="-20.9777" xlink:href="#9409_35" y="-60.792"/>
<use x="-13.6888" xlink:href="#9409_36" y="-60.792"/>
<use x="-6.39986" xlink:href="#9409_38" y="-60.792"/>
</g>
</g>
</g></g>
</svg>
